<svg width="16" height="14" viewBox="0 0 16 14" fill="none" xmlns="http://www.w3.org/2000/svg">
<path d="M7.23706 13.2098L7.20997 13.1913L7.18068 13.1764C6.36299 12.7611 4.79598 11.748 3.44068 10.3449C2.07778 8.93384 1 7.20309 1 5.34637C1 2.80373 3.02862 0.75 5.50049 0.75C6.2954 0.75 7.06319 0.961268 7.74558 1.36462L8 1.515L8.25442 1.36462C8.93675 0.961307 9.70599 0.75 10.4995 0.75C12.9714 0.75 15 2.80373 15 5.34637C15 7.20312 13.9222 8.93425 12.5593 10.3454C11.204 11.7488 9.63703 12.7618 8.81963 13.1762L8.79018 13.1912L8.76294 13.2098C8.53345 13.3672 8.28108 13.4457 8 13.4457C7.71892 13.4457 7.46655 13.3672 7.23706 13.2098Z" stroke="black"/>
</svg>
